<svg xmlns="http://www.w3.org/2000/svg" viewBox="0 0 149.2512 176.2966"><defs><style>.cls-1{fill:#231f20;}</style></defs><g id="Layer_2" data-name="Layer 2"><g id="Layer_1-2" data-name="Layer 1"><path class="cls-1" d="M79.0569,88.9807H70.1943A70.1943,70.1943,0,0,0,0,159.175v12.0512a5.07,5.07,0,0,0,5.07,5.07H144.1809a5.07,5.07,0,0,0,5.07-5.07V159.175A70.1943,70.1943,0,0,0,79.0569,88.9807Zm-51.6926,56.51a44.1348,44.1348,0,0,0-1.8789,12.7832,3.5,3.5,0,0,1-7,0,51.1559,51.1559,0,0,1,2.1777-14.8086,3.5,3.5,0,0,1,6.7012,2.0254Zm14.1836-21.2745A44.3651,44.3651,0,0,0,32.88,133.81a3.5,3.5,0,1,1-5.8223-3.8867,51.3991,51.3991,0,0,1,10.0332-11.1055,3.5,3.5,0,1,1,4.4571,5.3984Zm23.581-9.85a43.8621,43.8621,0,0,0-12.52,3.1718,3.5,3.5,0,1,1-2.6992-6.459,50.8876,50.8876,0,0,1,14.5146-3.6777,3.5,3.5,0,1,1,.7051,6.9649Z"/><circle class="cls-1" cx="74.6256" cy="36.9858" r="36.9858"/></g></g></svg>