<svg xmlns="http://www.w3.org/2000/svg" viewBox="0 0 262.6464 189.3068"><defs><style>.cls-1{fill:#231f20;}</style></defs><g id="Layer_2" data-name="Layer 2"><g id="Layer_1-2" data-name="Layer 1"><path class="cls-1" d="M236.7686,153.9287h-111.08a3.5,3.5,0,0,1-3.39-2.6269L85.1084,7H52.4766a3.5,3.5,0,0,1,0-7H87.82a3.5006,3.5006,0,0,1,3.39,2.6265L128.4,146.9287H236.7686a3.5,3.5,0,0,1,0,7Z"/><path class="cls-1" d="M89.335,91.8252H3.5a3.5,3.5,0,0,1,0-7H89.335a3.5,3.5,0,0,1,0,7Z"/><path class="cls-1" d="M95.3936,117.07H35.8145a3.5,3.5,0,0,1,0-7H95.3936a3.5,3.5,0,1,1,0,7Z"/><path class="cls-1" d="M224.07,29.5844a3.474,3.474,0,0,1,.3287,1.9429L222.2207,49.395a3.502,3.502,0,0,1-3.4707,3.0772,3.6176,3.6176,0,0,1-.6014-.0516,3.5713,3.5713,0,0,1-2.8636-3.9828l2.1642-17.7571a3.4819,3.4819,0,0,1,.3367-1.0963H182.2343a3.4658,3.4658,0,0,1,.36,1.52V49.012a3.5564,3.5564,0,0,1-2.7695,3.518,3.504,3.504,0,0,1-4.2305-3.426v-18a3.4645,3.4645,0,0,1,.3605-1.52H143.2039a3.45,3.45,0,0,1,.3371,1.0782l2.2695,17.8564a3.5,3.5,0,1,1-6.9433.8829l-2.2695-17.8565a3.4771,3.4771,0,0,1,.3244-1.961H94.543L116.97,116.6h30.8561a3.4664,3.4664,0,0,1-.6187-1.5647l-1.5076-11.8636a3.6378,3.6378,0,0,1,2.8319-4.0875,3.496,3.496,0,0,1,4.0859,3.0038l1.5332,12.0644a3.474,3.474,0,0,1-.6182,2.4476h22.7012a3.476,3.476,0,0,1-.6387-2.0061V103.1961a3.5569,3.5569,0,0,1,2.77-3.5186,3.5042,3.5042,0,0,1,4.23,3.426v11.49a3.4766,3.4766,0,0,1-.6386,2.0061h25.9414a3.4765,3.4765,0,0,1-.6221-2.43l1.4537-11.9275a3.5563,3.5563,0,0,1,3.1745-3.1569,3.5054,3.5054,0,0,1,3.7859,3.9135l-1.4649,12.0186a3.4682,3.4682,0,0,1-.6211,1.5823h26.1756a3.2376,3.2376,0,0,0,3.1456-2.4711l19.6281-80.54a3.2376,3.2376,0,0,0-3.1456-4.0042Zm-76.7513,58.56a3.435,3.435,0,0,1-.4463.0284,3.5,3.5,0,0,1-3.4668-3.0586l-2.2573-17.76a3.5616,3.5616,0,0,1,2.288-3.84,3.5081,3.5081,0,0,1,4.6431,2.86l2.2695,17.8559A3.4988,3.4988,0,0,1,147.3184,88.1445Zm35.2763-3.041a3.5041,3.5041,0,0,1-4.23,3.426,3.5569,3.5569,0,0,1-2.77-3.5185V67.196a3.5564,3.5564,0,0,1,2.77-3.518,3.504,3.504,0,0,1,4.23,3.426Zm37.428-17.6658-2.1565,17.6932a3.5012,3.5012,0,0,1-3.47,3.0761,3.4055,3.4055,0,0,1-1.38-.2857,3.5973,3.5973,0,0,1-2.0858-3.7544l2.1635-17.75a3.49,3.49,0,0,1,4.0436-3.03A3.6156,3.6156,0,0,1,220.0227,67.4377Z"/><circle class="cls-1" cx="137.432" cy="177.189" r="12.1178"/><circle class="cls-1" cx="221.7519" cy="177.189" r="12.1178"/></g></g></svg>