<svg xmlns="http://www.w3.org/2000/svg" viewBox="0 0 193.042 180.4211"><defs><style>.cls-1{fill:#231f20;}</style></defs><g id="Layer_2" data-name="Layer 2"><g id="Layer_1-2" data-name="Layer 1"><path class="cls-1" d="M175.2354,17.7665a60.7537,60.7537,0,0,0-77.2275-7.169,2.623,2.623,0,0,1-2.9738,0A60.7588,60.7588,0,0,0,17.8066,103.744l71.4512,71.4512,3.785,3.7851a4.919,4.919,0,0,0,6.9565,0l75.2361-75.2363A60.7951,60.7951,0,0,0,175.2354,17.7665ZM49.8321,104.9438a3.5017,3.5017,0,0,1-4.8106-.09L33.7476,93.7781a3.6326,3.6326,0,0,1-.3117-4.9512,3.5021,3.5021,0,0,1,5.0778-.1807l11.2785,11.08A3.63,3.63,0,0,1,49.8321,104.9438ZM72.6593,127.37a3.5019,3.5019,0,0,1-4.8107-.0905L56.575,116.2041a3.6327,3.6327,0,0,1-.3113-4.9521,3.5028,3.5028,0,0,1,5.0771-.18l11.2785,11.08A3.63,3.63,0,0,1,72.6593,127.37Zm22.8281,22.4248a3.5017,3.5017,0,0,1-4.8106-.09L79.4029,138.6287a3.6325,3.6325,0,0,1-.3117-4.9512,3.502,3.502,0,0,1,5.0777-.1807l11.2785,11.08A3.63,3.63,0,0,1,95.4874,149.7944Z"/></g></g></svg>