<svg xmlns="http://www.w3.org/2000/svg" viewBox="0 0 264.8242 184.2148"><defs><style>.cls-1{fill:#231f20;}</style></defs><g id="Layer_2" data-name="Layer 2"><g id="Layer_1-2" data-name="Layer 1"><path class="cls-1" d="M3.5,47.0713a3.5005,3.5005,0,0,1-3.5-3.5v-16a3.5,3.5,0,0,1,7,0v16A3.5005,3.5005,0,0,1,3.5,47.0713Zm0-32a3.5005,3.5005,0,0,1-3.5-3.5V3.5A3.5005,3.5005,0,0,1,3.5,0h7.9287a3.5,3.5,0,0,1,0,7H7v4.5713A3.5005,3.5005,0,0,1,3.5,15.0713ZM42.6992,7h-15.27a3.5,3.5,0,0,1,0-7h15.27a3.5,3.5,0,0,1,0,7Z"/><path class="cls-1" d="M42.9414,184.2148h-16a3.5,3.5,0,0,1,0-7h16a3.5,3.5,0,1,1,0,7Zm-32,0H3.5a3.5,3.5,0,0,1-3.5-3.5v-8.5586a3.5,3.5,0,0,1,7,0v5.0586h3.9414a3.5,3.5,0,0,1,0,7ZM3.5,159.6562a3.5,3.5,0,0,1-3.5-3.5v-15.21a3.5,3.5,0,0,1,7,0v15.21A3.5,3.5,0,0,1,3.5,159.6562Z"/><path class="cls-1" d="M261.3242,183.7148H253.335a3,3,0,0,1,0-6h4.9892v-5.0107a3,3,0,0,1,6,0v8.0107A3,3,0,0,1,261.3242,183.7148Zm-23.9892,0h-16a3,3,0,0,1,0-6h16a3,3,0,0,1,0,6Zm23.9892-24.0107a3,3,0,0,1-3-3v-16a3,3,0,0,1,6,0v16A3,3,0,0,1,261.3242,159.7041Z"/><path class="cls-1" d="M261.3242,46.4111a3.5,3.5,0,0,1-3.5-3.5v-16a3.5,3.5,0,1,1,7,0v16A3.5,3.5,0,0,1,261.3242,46.4111Zm0-32a3.5,3.5,0,0,1-3.5-3.5V7h-5.0888a3.5,3.5,0,0,1,0-7h8.5888a3.5005,3.5005,0,0,1,3.5,3.5v7.4111A3.5,3.5,0,0,1,261.3242,14.4111ZM236.7354,7h-16a3.5,3.5,0,0,1,0-7h16a3.5,3.5,0,0,1,0,7Z"/><rect class="cls-1" x="26.8682" y="23.5361" width="3" height="75.418"/><rect class="cls-1" x="232.6172" y="23.5361" width="3" height="75.418"/><rect class="cls-1" x="36.9355" y="23.5361" width="14" height="75.418"/><rect class="cls-1" x="210.9717" y="23.5361" width="14" height="75.418"/><rect class="cls-1" x="58.666" y="23.5361" width="10" height="75.418"/><rect class="cls-1" x="140.1934" y="23.5361" width="10" height="75.418"/><rect class="cls-1" x="193.4277" y="23.5361" width="10" height="75.418"/><rect class="cls-1" x="75.7432" y="23.5361" width="6" height="75.418"/><rect class="cls-1" x="112.959" y="23.5361" width="9" height="75.418"/><rect class="cls-1" x="89.6445" y="23.5361" width="5" height="75.418"/><rect class="cls-1" x="128.8262" y="23.5361" width="5" height="75.418"/><rect class="cls-1" x="167.8213" y="23.5361" width="5" height="75.418"/><rect class="cls-1" x="180.4639" y="23.5361" width="5" height="75.418"/><rect class="cls-1" x="101.999" y="23.5361" width="3" height="75.418"/><rect class="cls-1" x="157.4668" y="23.5361" width="3" height="75.418"/><rect class="cls-1" x="26.8682" y="117.8271" width="3" height="44.3369"/><rect class="cls-1" x="232.6172" y="117.8271" width="3" height="44.3369"/><rect class="cls-1" x="36.9355" y="117.8271" width="14" height="44.3369"/><rect class="cls-1" x="210.9717" y="117.8271" width="14" height="44.3369"/><rect class="cls-1" x="58.666" y="117.8271" width="10" height="44.3369"/><rect class="cls-1" x="140.1934" y="117.8271" width="10" height="44.3369"/><rect class="cls-1" x="193.4277" y="117.8271" width="10" height="44.3369"/><rect class="cls-1" x="75.7432" y="117.8271" width="6" height="44.3369"/><rect class="cls-1" x="112.959" y="117.8271" width="9" height="44.3369"/><rect class="cls-1" x="89.6445" y="117.8271" width="5" height="44.3369"/><rect class="cls-1" x="128.8262" y="117.8271" width="5" height="44.3369"/><rect class="cls-1" x="167.8213" y="117.8271" width="5" height="44.3369"/><rect class="cls-1" x="180.4648" y="117.8271" width="5" height="44.3369"/><rect class="cls-1" x="101.999" y="117.8271" width="3" height="44.3369"/><rect class="cls-1" x="157.4668" y="117.8271" width="3" height="44.3369"/><path class="cls-1" d="M247.9307,112.2129H14.0049a3.5,3.5,0,0,1,0-7H247.9307a3.5,3.5,0,0,1,0,7Z"/></g></g></svg>